<svg width="48" height="33" viewBox="0 0 48 33" fill="none" xmlns="http://www.w3.org/2000/svg">
<path d="M25.0634 32.9568L15.2157 32.7778C12.0272 32.7154 8.83078 32.8399 5.70482 32.1937C0.949507 31.2282 0.612624 26.4941 0.260112 22.5231C-0.225614 16.9404 -0.0375751 11.2564 0.879053 5.72025C1.39652 2.61391 3.43296 0.76034 6.58225 0.558636C17.2134 -0.173378 27.9152 -0.0866268 38.5228 0.254884C39.6431 0.286191 40.7711 0.457305 41.8758 0.652079C47.3287 1.60205 47.4616 6.9668 47.8151 11.4829C48.1676 16.0456 48.0188 20.6318 47.345 25.1634C46.8045 28.9155 45.7703 32.062 41.4057 32.3658C35.9372 32.763 30.5942 33.0827 25.1103 32.9809C25.1105 32.9568 25.079 32.9568 25.0634 32.9568Z" fill="#0C296E"/>
<path d="M30.2607 16.7499C26.1633 19.0858 22.121 21.3982 18 23.7498V9.75C22.0974 12.0858 26.1321 14.3983 30.2607 16.7499Z" fill="white"/>
</svg>
