<svg width="35" height="35" viewBox="0 0 35 35" fill="none" xmlns="http://www.w3.org/2000/svg">
<path d="M5.5 5.83346C5.5 2.61346 8.11334 0.00012207 11.3333 0.00012207H17.1667V11.6668H11.3333C8.11334 11.6668 5.5 9.05346 5.5 5.83346Z" fill="#0C296E"/>
<path d="M17.1667 0H23.0001C26.2201 0 28.8334 2.61333 28.8334 5.83333C28.8334 9.05334 26.2201 11.6667 23.0001 11.6667H17.1667V0Z" fill="#0C296E"/>
<path d="M5.5 17.5C5.5 14.28 8.11334 11.6666 11.3333 11.6666H17.1667V23.3333H11.3333C8.11334 23.3333 5.5 20.72 5.5 17.5Z" fill="#0C296E"/>
<path d="M28.8334 17.5C28.8334 20.72 26.2201 23.3333 23.0001 23.3333C19.7801 23.3333 17.1667 20.72 17.1667 17.5C17.1667 14.28 19.7801 11.6666 23.0001 11.6666C26.2201 11.6666 28.8334 14.28 28.8334 17.5Z" fill="#0C296E"/>
<path d="M11.3333 35C14.5534 35 17.1667 32.3867 17.1667 29.1667V23.3334H11.3333C8.11334 23.3334 5.5 25.9467 5.5 29.1667C5.5 32.3867 8.11334 35 11.3333 35Z" fill="#0C296E"/>
</svg>
