<svg width="35" height="28" viewBox="0 0 35 28" fill="none" xmlns="http://www.w3.org/2000/svg">
<path d="M27.7334 0.0830078C29.7303 0.0832065 31.2078 1.82868 31.1416 3.7207C31.0781 5.53874 31.1601 7.89361 31.7539 9.81348C32.3499 11.7394 33.3547 12.9592 35 13.1162V14.8848C33.3547 15.0413 32.3498 16.2607 31.7539 18.1865C31.1601 20.1068 31.0781 22.4622 31.1416 24.2803C31.2075 26.1724 29.7301 27.9168 27.7334 27.917H7.26953C5.27246 27.9168 3.79538 26.1721 3.86133 24.2803C3.92483 22.4622 3.84188 20.1068 3.24805 18.1865C2.65222 16.2608 1.64516 15.0417 0 14.8848V13.1162C1.64525 12.9596 2.65215 11.7391 3.24805 9.81348C3.84178 7.89334 3.92481 5.53875 3.86133 3.7207C3.79516 1.82832 5.27252 0.0830536 7.26953 0.0830078H27.7334ZM13.0508 6.59766C12.8937 6.59767 12.743 6.65973 12.6318 6.77051C12.5206 6.88152 12.4581 7.03246 12.458 7.18945V20.8105C12.458 20.9676 12.5206 21.1184 12.6318 21.2295C12.743 21.3404 12.8936 21.4033 13.0508 21.4033H18.5508C21.7818 21.4033 23.7285 19.8226 23.7285 17.2168C23.7285 15.2469 22.34 13.8207 20.2773 13.5947V13.5127C21.7925 13.2663 22.9814 11.8609 22.9814 10.291C22.9814 8.05429 21.2136 6.59766 18.5195 6.59766H13.0508ZM17.9297 14.6514C20.1608 14.6514 21.3184 15.4728 21.3184 17.0732C21.3182 18.6735 20.1922 19.5254 18.0664 19.5254H14.8154V14.6514H17.9297ZM17.9512 8.47461C19.6561 8.47461 20.6238 9.2344 20.624 10.6094C20.6238 12.0763 19.4978 12.8965 17.4561 12.8965H14.8154V8.47461H17.9512Z" fill="#0C296E"/>
</svg>
