<svg width="33" height="33" viewBox="0 0 33 33" fill="none" xmlns="http://www.w3.org/2000/svg">
<path d="M8.36794 32.8833C6.40542 32.794 5.33932 32.4674 4.63022 32.1909C3.69064 31.825 3.02077 31.3896 2.3156 30.6854C1.61043 29.9812 1.17398 29.3113 0.810117 28.3717C0.533539 27.6626 0.206943 26.5965 0.117693 24.634C0.0196154 22.5126 0 21.8761 0 16.5015C0 11.1268 0.021577 10.4913 0.116712 8.36794C0.205962 6.40542 0.53452 5.34128 0.809136 4.63022C1.17496 3.69064 1.61141 3.02077 2.31462 2.31462C3.01881 1.61043 3.68868 1.173 4.62924 0.809136C5.33834 0.532559 6.40443 0.205962 8.36696 0.116712C10.4893 0.0196154 11.1268 0 16.4995 0C21.8741 0 22.5097 0.021577 24.633 0.116712C26.5956 0.205962 27.6597 0.53452 28.3708 0.809136C29.3103 1.173 29.9802 1.61043 30.6854 2.31462C31.3906 3.01881 31.825 3.68966 32.1909 4.62924C32.4674 5.33834 32.794 6.40443 32.8833 8.36696C32.9804 10.4903 33 11.1259 33 16.5005C33 21.8732 32.9804 22.5107 32.8833 24.634C32.794 26.5965 32.4655 27.6626 32.1909 28.3717C31.825 29.3113 31.3896 29.9812 30.6854 30.6854C29.9812 31.3896 29.3103 31.825 28.3708 32.1909C27.6617 32.4674 26.5956 32.794 24.633 32.8833C22.5116 32.9804 21.8741 33 16.4995 33C11.1268 33 10.4893 32.9814 8.36794 32.8833Z" fill="url(#paint0_radial_99_59)"/>
<path d="M8.36794 32.8833C6.40542 32.794 5.33932 32.4674 4.63022 32.1909C3.69064 31.825 3.02077 31.3896 2.3156 30.6854C1.61043 29.9812 1.17398 29.3113 0.810117 28.3717C0.533539 27.6626 0.206943 26.5965 0.117693 24.634C0.0196154 22.5126 0 21.8761 0 16.5015C0 11.1268 0.021577 10.4913 0.116712 8.36794C0.205962 6.40542 0.53452 5.34128 0.809136 4.63022C1.17496 3.69064 1.61141 3.02077 2.31462 2.31462C3.01881 1.61043 3.68868 1.173 4.62924 0.809136C5.33834 0.532559 6.40443 0.205962 8.36696 0.116712C10.4893 0.0196154 11.1268 0 16.4995 0C21.8741 0 22.5097 0.021577 24.633 0.116712C26.5956 0.205962 27.6597 0.53452 28.3708 0.809136C29.3103 1.173 29.9802 1.61043 30.6854 2.31462C31.3906 3.01881 31.825 3.68966 32.1909 4.62924C32.4674 5.33834 32.794 6.40443 32.8833 8.36696C32.9804 10.4903 33 11.1259 33 16.5005C33 21.8732 32.9804 22.5107 32.8833 24.634C32.794 26.5965 32.4655 27.6626 32.1909 28.3717C31.825 29.3113 31.3896 29.9812 30.6854 30.6854C29.9812 31.3896 29.3103 31.825 28.3708 32.1909C27.6617 32.4674 26.5956 32.794 24.633 32.8833C22.5116 32.9804 21.8741 33 16.4995 33C11.1268 33 10.4893 32.9814 8.36794 32.8833Z" fill="#0C296E"/>
<path d="M12.4485 16.5703C12.4485 14.3135 14.2775 12.4835 16.5344 12.4835C18.7912 12.4835 20.6212 14.3135 20.6212 16.5703C20.6212 18.8272 18.7912 20.6572 16.5344 20.6572C14.2775 20.6572 12.4485 18.8272 12.4485 16.5703ZM10.2392 16.5703C10.2392 20.0472 13.0575 22.8655 16.5344 22.8655C20.0112 22.8655 22.8295 20.0472 22.8295 16.5703C22.8295 13.0935 20.0112 10.2752 16.5344 10.2752C13.0575 10.2752 10.2393 13.0933 10.2393 16.5703M21.6077 10.0256C21.6076 10.3165 21.6937 10.601 21.8553 10.843C22.0169 11.085 22.2465 11.2736 22.5153 11.3851C22.7841 11.4965 23.0799 11.5258 23.3653 11.4691C23.6507 11.4125 23.9129 11.2725 24.1187 11.0668C24.3245 10.8612 24.4647 10.5991 24.5216 10.3137C24.5785 10.0284 24.5495 9.73256 24.4382 9.4637C24.327 9.19484 24.1385 8.965 23.8967 8.80325C23.6548 8.6415 23.3704 8.5551 23.0794 8.55499H23.0788C22.6888 8.55517 22.3148 8.71014 22.039 8.98587C21.7632 9.2616 21.608 9.63554 21.6077 10.0256ZM11.5815 26.5495C10.3862 26.4951 9.73653 26.296 9.3048 26.1278C8.73242 25.9049 8.32403 25.6395 7.89465 25.2107C7.46527 24.7819 7.19948 24.3739 6.97763 23.8016C6.80933 23.37 6.61023 22.7202 6.55589 21.5249C6.49646 20.2326 6.48459 19.8444 6.48459 16.5705C6.48459 13.2966 6.49744 12.9095 6.55589 11.6162C6.61033 10.4209 6.81089 9.77232 6.97763 9.3395C7.20046 8.76713 7.46585 8.35873 7.89465 7.92935C8.32344 7.49997 8.73144 7.23418 9.3048 7.01233C9.73634 6.84403 10.3862 6.64493 11.5815 6.5906C12.8737 6.53117 13.2619 6.5193 16.5344 6.5193C19.8068 6.5193 20.1954 6.53195 21.4887 6.5908C22.684 6.64523 23.3326 6.8458 23.7654 7.01253C24.3378 7.23438 24.7462 7.50076 25.1755 7.92955C25.6049 8.35834 25.8697 8.76732 26.0926 9.3397C26.2609 9.77124 26.46 10.4211 26.5143 11.6164C26.5737 12.9097 26.5856 13.2968 26.5856 16.5707C26.5856 19.8446 26.5737 20.2318 26.5143 21.5251C26.4599 22.7204 26.2598 23.37 26.0926 23.8018C25.8697 24.3741 25.6043 24.7825 25.1755 25.2109C24.7467 25.6393 24.3378 25.9051 23.7654 26.128C23.3338 26.2963 22.684 26.4953 21.4887 26.5497C20.1965 26.6091 19.8083 26.621 16.5344 26.621C13.2604 26.621 12.8733 26.6091 11.5815 26.5497M11.48 4.38494C10.1748 4.44438 9.28303 4.65132 8.5042 4.95438C7.6981 5.26734 7.0148 5.68721 6.33247 6.36846C5.65015 7.0497 5.23136 7.7331 4.9184 8.54018C4.61534 9.3195 4.4084 10.2108 4.34896 11.5159C4.28855 12.8231 4.27472 13.241 4.27472 16.5703C4.27472 19.8997 4.28855 20.3176 4.34896 21.6247C4.4084 22.93 4.61534 23.8212 4.9184 24.6005C5.23136 25.4066 5.65025 26.0913 6.33247 26.7722C7.0147 27.4532 7.69712 27.8724 8.5042 28.1863C9.2845 28.4894 10.1748 28.6963 11.48 28.7557C12.7878 28.8152 13.205 28.83 16.5344 28.83C19.8637 28.83 20.2816 28.8161 21.5888 28.7557C22.894 28.6963 23.7852 28.4894 24.5645 28.1863C25.3706 27.8724 26.0539 27.4535 26.7362 26.7722C27.4186 26.091 27.8365 25.4066 28.1503 24.6005C28.4534 23.8212 28.6613 22.9299 28.7197 21.6247C28.7792 20.3166 28.793 19.8997 28.793 16.5703C28.793 13.241 28.7792 12.8231 28.7197 11.5159C28.6603 10.2107 28.4534 9.31901 28.1503 8.54018C27.8365 7.73408 27.4175 7.05078 26.7362 6.36846C26.055 5.68613 25.3706 5.26734 24.5655 4.95438C23.7852 4.65132 22.8939 4.4434 21.5897 4.38494C20.2824 4.32521 19.8647 4.3107 16.5358 4.3107C13.207 4.3107 12.7883 4.32453 11.4804 4.38494" fill="white"/>
<defs>
<radialGradient id="paint0_radial_99_59" cx="0" cy="0" r="1" gradientUnits="userSpaceOnUse" gradientTransform="translate(2.13573 32.2771) scale(41.8977)">
<stop offset="0.09" stop-color="#FA8F21"/>
<stop offset="0.78" stop-color="#D82D7E"/>
</radialGradient>
</defs>
</svg>
