<svg width="33" height="33" viewBox="0 0 33 33" fill="none" xmlns="http://www.w3.org/2000/svg">
<path d="M25.7412 -7.62939e-06H7.26756C3.26021 -7.62939e-06 0 3.23943 0 7.23012V25.7037C0 29.7111 3.26021 33 7.26756 33H25.7412C29.7318 33 33 29.7111 33 25.7037V7.23012C33 3.23943 29.7318 -7.62939e-06 25.7412 -7.62939e-06Z" fill="#0C296E"/>
<path fill-rule="evenodd" clip-rule="evenodd" d="M18.0923 12.5737V10.9774C18.0923 10.2126 18.6076 10.0296 18.9738 10.0296C19.3228 10.0296 21.2019 10.0296 21.2019 10.0296V6.62087H18.1258C14.7168 6.62087 13.9518 9.14829 13.9518 10.7779V12.5737H11.9733V14.968V16.5477H13.9687C13.9687 21.0541 13.9687 26.4746 13.9687 26.4746H17.9426C17.9426 26.4746 17.9426 20.9873 17.9426 16.5477H20.886L21.0188 14.9847L21.2516 12.5737H18.0923Z" fill="#FEFEFE"/>
</svg>
