<svg width="33" height="33" viewBox="0 0 33 33" fill="none" xmlns="http://www.w3.org/2000/svg">
<path d="M25.8017 0H7.32832C3.32046 0 0 3.23943 0 7.23012V25.7037C0 29.711 3.32046 33 7.32832 33H25.8017C29.8092 33 33 29.711 33 25.7037V7.23012C33 3.23943 29.8092 0 25.8017 0Z" fill="#0C296E"/>
<path fill-rule="evenodd" clip-rule="evenodd" d="M16.7398 23.7144C15.0767 23.7144 13.5304 23.2156 12.2333 22.3674L9.09076 23.3652L10.1046 20.3389C9.12422 19.0087 8.54213 17.346 8.54213 15.5667C8.54213 15.3007 8.55846 15.0512 8.59188 14.785C8.99111 10.6613 12.4992 7.43581 16.7398 7.43581C21.0462 7.43581 24.5883 10.7447 24.9205 14.9348C24.9371 15.1511 24.9371 15.367 24.9371 15.5667C24.9371 20.0564 21.2623 23.7144 16.7398 23.7144ZM21.2123 17.5287C20.9631 17.4123 19.7993 16.8305 19.5832 16.7474C19.3499 16.6808 19.2005 16.6308 19.0346 16.8803C18.8844 17.1131 18.4193 17.6453 18.2859 17.7947C18.136 17.9612 18.0033 17.9779 17.7706 17.8613C17.5207 17.7449 16.756 17.4954 15.8419 16.6808C15.1265 16.0491 14.6447 15.2841 14.5112 15.0512C14.3781 14.8018 14.4946 14.6853 14.6112 14.5525C14.7276 14.4527 14.8607 14.2863 14.9766 14.1365C15.0101 14.1034 15.0434 14.07 15.0599 14.0368C15.1265 13.9371 15.1596 13.8541 15.21 13.7542C15.293 13.5882 15.26 13.455 15.1936 13.3386C15.1428 13.2223 14.6614 12.0417 14.4612 11.576C14.2622 11.0939 14.0626 11.177 13.9291 11.177C13.7796 11.177 13.6301 11.1603 13.464 11.1603C13.2972 11.1603 13.0482 11.2102 12.832 11.4597C12.5989 11.6923 11.9835 12.2578 11.9835 13.4384C11.9835 13.7045 12.0337 13.9871 12.1174 14.2367C12.3497 15.0847 12.8821 15.7663 12.9651 15.8828C13.0812 16.0491 14.6112 18.5098 17.0385 19.4579C19.483 20.4056 19.483 20.0896 19.9153 20.0565C20.3478 20.0229 21.3286 19.491 21.5285 18.9257C21.7277 18.377 21.7278 17.8946 21.6614 17.7948C21.6115 17.7119 21.4454 17.6453 21.2123 17.5287ZM26.4838 15.3339C26.3501 10.0962 22.044 5.90572 16.7398 5.90572C11.5022 5.90572 7.22872 9.9964 7.01223 15.1511C6.99557 15.2841 6.99557 15.4337 6.99557 15.5667C6.99557 17.3957 7.51114 19.1084 8.39265 20.5716L6.63013 25.7596L12.0339 24.0469C13.4308 24.8119 15.0436 25.244 16.7399 25.244C22.1271 25.244 26.5003 20.9208 26.5003 15.5667C26.5003 15.4836 26.4838 15.4169 26.4838 15.3339Z" fill="#FEFEFE"/>
</svg>
