<svg xmlns="http://www.w3.org/2000/svg" xmlns:xlink="http://www.w3.org/1999/xlink" xmlns:inkscape="http://www.inkscape.org/namespaces/inkscape" version="1.1" width="280" height="183" viewBox="0 0 280 183">
<path transform="matrix(1,0,0,-1,-1821.1185,2113.8814)" d="M1922.9402 1976.0662V2097.2532H1953.2366V1976.0662H1922.9402ZM1862.3474 1945.7694V1976.0662H1832.051V2006.363H1862.3474V1976.0662H1922.9402V1945.7694H1862.3474Z" fill-rule="evenodd"/>
<path transform="matrix(1,0,0,-1,-1821.1185,2113.8814)" d="M1991.5071 2035.9629H2050.888V2066.2598H1991.5071V2035.9629ZM2037.5706 2005.8391 2098.6524 1945.2456H2053.2806L1991.6873 2005.6714 1991.5071 1945.0726H1961.2107V2096.5565H2050.9598L2050.888 2066.2598H2082.3963V2035.9629C2082.306 2018.8153 2069.2257 2005.7348 2053.0899 2005.7348L2037.5706 2005.8391Z"/>
<path transform="matrix(1,0,0,-1,-1821.1185,2113.8814)" d="M2063.3843 2103.039V2078.9053H2088.9373C2088.9373 2078.9053 2092.486 2103.039 2063.3843 2103.039Z" fill-rule="evenodd"/>
</svg>
