<svg width="25" height="35" viewBox="0 0 25 35" fill="none" xmlns="http://www.w3.org/2000/svg">
<path d="M2.36652 0H3.94725V1.55858H5.39328V0H6.97411V4.71976H5.39338V3.13932H3.94734V4.71976H2.36661L2.36652 0ZM9.05272 1.56519H7.66133V0H12.026V1.56519H10.6337V4.71976H9.05302V1.56519H9.05272ZM12.7187 0H14.3669L15.3808 1.6584L16.3937 0H18.0426V4.71976H16.4683V2.38039L15.3808 4.05852H15.3535L14.2653 2.38039V4.71976H12.7187V0ZM18.8293 0H20.4105V3.15973H22.6335V4.71976H18.8292V0H18.8293Z" fill="#0C296E"/>
<path d="M24.9233 6.71976L22.6597 32.0263L12.4848 34.8414L2.33795 32.0302L0.0767212 6.71976H24.9233Z" fill="#0C296E"/>
<path d="M8.07249 15.1042H12.5V12H4.6521L4.72697 12.8328L5.49625 21.3872H12.5V18.283H8.35854L8.07249 15.1042ZM8.77787 22.9394H5.63609L6.07453 27.8135L12.4856 29.5786L12.5 29.5748V26.345L12.4863 26.3486L9.00071 25.4151L8.77787 22.9394Z" fill="white"/>
<path d="M12.4891 21.4394H16.343L15.9797 25.4653L12.489 26.3998V29.6293L18.9052 27.8656L18.9522 27.3412L19.6878 19.1687L19.7641 18.3351H12.4891V21.4394ZM12.4891 15.1488V15.1564H20.0489L20.1116 14.4587L20.2543 12.8849L20.3291 12.0521H12.4891V15.1488Z" fill="white"/>
</svg>
