<svg width="33" height="33" viewBox="0 0 33 33" fill="none" xmlns="http://www.w3.org/2000/svg">
<path d="M0 2.36388C0 1.05909 1.09235 0 2.43891 0H30.5611C31.9082 0 33 1.05909 33 2.36388V30.6365C33 31.9417 31.9082 33 30.5611 33H2.43891C1.09248 33 0 31.9418 0 30.6369V2.3635V2.36388Z" fill="#0C296E"/>
<path d="M10.0284 27.6166V12.7599H5.09026V27.6166H10.0289H10.0284ZM7.56037 10.7318C9.28204 10.7318 10.3539 9.591 10.3539 8.1653C10.3217 6.70711 9.28204 5.59813 7.59311 5.59813C5.90302 5.59813 4.79919 6.70711 4.79919 8.16517C4.79919 9.59087 5.87066 10.7317 7.52801 10.7317H7.55998L7.56037 10.7318ZM12.7617 27.6166H17.6995V19.3208C17.6995 18.8774 17.7317 18.4328 17.8622 18.1161C18.219 17.2286 19.0315 16.3099 20.3959 16.3099C22.1823 16.3099 22.8974 17.6721 22.8974 19.6695V27.6166H27.835V19.0982C27.835 14.5351 25.3992 12.4116 22.1504 12.4116C19.4868 12.4116 18.3169 13.9003 17.667 14.9143H17.6999V12.7604H12.762C12.8264 14.1542 12.7616 27.6171 12.7616 27.6171L12.7617 27.6166Z" fill="white"/>
</svg>
