<svg xmlns="http://www.w3.org/2000/svg" xmlns:xlink="http://www.w3.org/1999/xlink" xmlns:inkscape="http://www.inkscape.org/namespaces/inkscape" version="1.1" width="177" height="105" viewBox="0 0 177 105">
<path transform="matrix(1,0,0,-1,-1821.1185,2035.8815)" d="M1881.6581 1951.562V2032.1697H1901.8097V1951.562H1881.6581ZM1841.3549 1931.4102V1951.562H1821.2033V1971.714H1841.3549V1951.562H1881.6581V1931.4102H1841.3549Z" fill="#ffffff" fill-rule="evenodd"/>
<path transform="matrix(1,0,0,-1,-1821.1185,2035.8815)" d="M1927.2653 1991.4024H1966.7625V2011.5543H1927.2653V1991.4024ZM1957.9043 1971.3655 1998.5328 1931.0617H1968.3539L1927.3853 1971.254 1927.2653 1930.9467H1907.1137V2031.7062H1966.81L1966.7625 2011.5543H1987.7202V1991.4024C1987.6602 1979.9966 1978.9597 1971.2962 1968.227 1971.2962L1957.9043 1971.3655Z" fill="#ffffff"/>
<path transform="matrix(1,0,0,-1,-1821.1185,2035.8815)" d="M1975.0744 2036.0182V2019.9656H1992.0708C1992.0708 2019.9656 1994.4314 2036.0182 1975.0744 2036.0182Z" fill="#ffffff" fill-rule="evenodd"/>
</svg>
