<svg width="35" height="34" viewBox="0 0 35 34" fill="none" xmlns="http://www.w3.org/2000/svg">
<rect width="35" height="34" rx="5" fill="#0C296E"/>
<path d="M8 24.6453V9.25427C8 9.14957 8.04487 9.08974 8.14957 9.08974C8.40385 9.08974 8.64316 9.08974 8.98718 9.07479C9.34615 9.05983 9.72008 9.05983 10.1239 9.04487C10.5278 9.02991 10.9615 9.02991 11.4252 9.01496C11.8889 9 12.3376 9 12.7863 9C14.0128 9 15.0299 9.14957 15.8675 9.46368C16.6154 9.71795 17.3034 10.1368 17.8718 10.6902C18.3504 11.1688 18.7244 11.7521 18.9637 12.3953C19.188 13.0235 19.3077 13.6667 19.3077 14.3397C19.3077 15.6261 19.0085 16.688 18.4103 17.5256C17.812 18.3632 16.9744 18.9915 16.0021 19.3504C14.985 19.7244 13.8632 19.859 12.6368 19.859C12.2778 19.859 12.0385 19.859 11.8889 19.844C11.7393 19.8291 11.5299 19.8291 11.2457 19.8291V24.6303C11.2607 24.735 11.1859 24.8248 11.0812 24.8397H8.17949C8.05983 24.8397 8 24.7799 8 24.6453ZM11.2607 11.9765V17.0021C11.4701 17.0171 11.6645 17.0321 11.844 17.0321H12.6368C13.2201 17.0321 13.8034 16.9423 14.3568 16.7628C14.8355 16.6282 15.2543 16.344 15.5833 15.9701C15.8974 15.5962 16.047 15.0876 16.047 14.4295C16.062 13.9658 15.9423 13.5021 15.703 13.0983C15.4487 12.7094 15.0897 12.4103 14.656 12.2457C14.1026 12.0214 13.5043 11.9316 12.891 11.9466C12.5021 11.9466 12.1581 11.9466 11.8739 11.9615C11.5748 11.9466 11.3654 11.9615 11.2607 11.9765ZM28.641 16.0897C28.1923 15.8504 27.7137 15.6859 27.2051 15.5812C26.6517 15.4615 26.0983 15.3868 25.5299 15.3868C25.2308 15.3718 24.9167 15.4167 24.6325 15.4915C24.438 15.5363 24.2735 15.641 24.1688 15.7906C24.094 15.9103 24.0491 16.0598 24.0491 16.1944C24.0491 16.3291 24.109 16.4637 24.1987 16.5833C24.3333 16.7479 24.5128 16.8825 24.7073 16.9872C25.0513 17.1667 25.4103 17.3312 25.7692 17.4808C26.5769 17.75 27.3547 18.1239 28.0726 18.5727C28.5662 18.8868 28.9701 19.3056 29.2543 19.8141C29.4936 20.2927 29.6132 20.8162 29.5983 21.3547C29.6132 22.0577 29.4038 22.7607 29.015 23.344C28.5962 23.9423 28.0128 24.406 27.3397 24.6752C26.6068 24.9893 25.7094 25.1538 24.6325 25.1538C23.9444 25.1538 23.2714 25.094 22.5983 24.9594C22.0748 24.8697 21.5513 24.7051 21.0726 24.4808C20.9679 24.4209 20.8932 24.3162 20.9081 24.1966V21.594C20.9081 21.5491 20.9231 21.4893 20.9679 21.4594C21.0128 21.4295 21.0577 21.4444 21.1026 21.4744C21.6859 21.8184 22.2991 22.0577 22.9573 22.2073C23.5256 22.3568 24.1239 22.4316 24.7222 22.4316C25.2906 22.4316 25.6944 22.3568 25.9637 22.2222C26.203 22.1175 26.3675 21.8632 26.3675 21.594C26.3675 21.3846 26.2479 21.1902 26.0085 20.9957C25.7692 20.8013 25.2756 20.5769 24.5427 20.2927C23.7799 20.0235 23.0769 19.6645 22.4188 19.2158C21.9551 18.8868 21.5662 18.453 21.2821 17.9444C21.0427 17.4658 20.9231 16.9423 20.938 16.4188C20.938 15.7756 21.1175 15.1624 21.4466 14.609C21.8205 14.0107 22.3739 13.5321 23.0171 13.2329C23.7201 12.8739 24.6026 12.7094 25.6645 12.7094C26.2778 12.7094 26.906 12.7543 27.5192 12.844C27.9679 12.9038 28.4017 13.0235 28.8056 13.188C28.8654 13.203 28.9252 13.2628 28.9551 13.3227C28.9701 13.3825 28.985 13.4423 28.985 13.5021V15.9402C28.985 16 28.9551 16.0598 28.9103 16.0897C28.7756 16.1197 28.7009 16.1197 28.641 16.0897Z" fill="white"/>
</svg>
