<svg width="35" height="34" viewBox="0 0 35 34" fill="none" xmlns="http://www.w3.org/2000/svg">
<g clip-path="url(#clip0_96_207)">
<path d="M6.38293 0H29.6618C33.1912 0 36.0448 2.8413 36.0448 6.35553V28.6373C36.0448 32.1515 33.1912 34.9928 29.6618 34.9928H6.38293C2.85354 34.9928 0 32.1515 0 28.6373V6.35553C0 2.8413 2.85354 0 6.38293 0Z" fill="#0C296E"/>
<path d="M16.9166 20.3412H11.4916L10.3833 23.7551C10.3541 23.8858 10.2375 23.973 10.1062 23.9584H7.36456C7.20415 23.9584 7.1604 23.8713 7.20415 23.697L11.9 10.2305C11.9437 10.0852 11.9875 9.92542 12.0458 9.75109C12.1041 9.44603 12.1333 9.12643 12.1333 8.80684C12.1187 8.73421 12.1771 8.66157 12.25 8.64705H16.0271C16.1437 8.64705 16.2021 8.69063 16.2166 8.76326L21.5396 23.726C21.5833 23.8858 21.5396 23.9584 21.3937 23.9584H18.3458C18.2437 23.973 18.1417 23.9003 18.1125 23.7986L16.9166 20.3412ZM12.3375 17.3923H16.0416C15.9541 17.0872 15.8375 16.724 15.7062 16.3463C15.575 15.9541 15.4437 15.5328 15.3125 15.097C15.1666 14.6467 15.0354 14.2109 14.8896 13.7605C14.7437 13.3102 14.6125 12.8889 14.4958 12.4676C14.3791 12.0609 14.2771 11.6832 14.175 11.3345H14.1458C14.0146 11.9592 13.8541 12.5838 13.65 13.2085C13.4312 13.9058 13.2125 14.6321 12.9791 15.3585C12.775 16.0994 12.5562 16.7821 12.3375 17.3923ZM24.7917 11.1893C24.3104 11.2038 23.8437 11.0149 23.4937 10.6808C23.1583 10.3176 22.9833 9.83826 22.9979 9.34434C22.9833 8.85042 23.1729 8.38556 23.5229 8.05144C23.8729 7.71732 24.3396 7.543 24.8208 7.543C25.3896 7.543 25.8271 7.71732 26.1479 8.05144C26.4687 8.40009 26.6437 8.86495 26.6292 9.34434C26.6437 9.83826 26.4687 10.3176 26.1187 10.6808C25.7833 11.0295 25.2875 11.2183 24.7917 11.1893ZM23.1583 23.7986V12.6129C23.1583 12.4676 23.2167 12.4095 23.3479 12.4095H26.2354C26.3666 12.4095 26.425 12.4822 26.425 12.6129V23.7986C26.425 23.9584 26.3666 24.0311 26.2354 24.0311H23.3771C23.2312 24.0311 23.1583 23.9439 23.1583 23.7986Z" fill="white"/>
</g>
<defs>
<clipPath id="clip0_96_207">
<rect width="35" height="34" fill="white"/>
</clipPath>
</defs>
</svg>
