<svg width="25" height="35" viewBox="0 0 25 35" fill="none" xmlns="http://www.w3.org/2000/svg">
<path d="M6.73911 3.27309V1.76274H8.94273V0.110046H5.08643V4.78121H8.94273V3.27309H6.73911ZM12.9068 1.76274H14.4474V0.110046H10.5907V1.76274C11.1067 2.27871 11.3758 2.52566 12.122 3.2719C11.6858 3.2719 10.5907 3.27339 10.5907 3.27339V4.78121H14.4474V3.27309L12.9068 1.76274ZM18.3729 1.76274H19.9135V0.110046H16.0566V1.76274C16.5726 2.27871 16.8418 2.52566 17.5881 3.2719C17.152 3.2719 16.0566 3.27339 16.0566 3.27339V4.78121H19.9135V3.27309L18.3729 1.76274Z" fill="#0C296E"/>
<path d="M22.6502 32.1569L12.4999 34.89L2.34949 32.1569L0.00720215 6.78122H24.9928L22.6502 32.1569Z" fill="#0C296E"/>
<path d="M12.4906 15.2916L5.2215 18.3172L5.46256 21.3128L12.4906 18.3096L19.9666 15.1151L20.2765 12.0508L12.4906 15.2916Z" fill="white"/>
<path d="M20.2768 12.0508L12.4908 15.2916V18.3096L19.9668 15.1151L20.2768 12.0508Z" fill="url(#paint0_linear_96_209)"/>
<path d="M5.23297 18.3172L5.47411 21.3128L16.2577 21.3472L16.0165 25.3412L12.4681 26.3396L9.05698 25.4789L8.85029 22.9998H5.68079L6.09424 27.7858L12.5025 29.6795L18.876 27.8201L19.7029 18.3172H5.23297Z" fill="white"/>
<path d="M4.56708 12.0508H20.2768L19.9668 15.1152H4.946L4.56708 12.0508Z" fill="white"/>
<defs>
<linearGradient id="paint0_linear_96_209" x1="16.3837" y1="18.3097" x2="16.3837" y2="12.0509" gradientUnits="userSpaceOnUse">
<stop offset="0.387" stop-color="#D1D3D4" stop-opacity="0"/>
<stop offset="1" stop-color="#D1D3D4"/>
</linearGradient>
</defs>
</svg>
